<svg width="960" height="182" viewBox="0 0 960 182" fill="none" xmlns="http://www.w3.org/2000/svg">
<path fill-rule="evenodd" clip-rule="evenodd" d="M485.683 163C460.301 163 437.009 151.498 421.6 131.4L438.267 119.381C449.749 134.078 466.973 142.491 485.683 142.491C518.834 142.491 545.802 115.577 545.802 82.5084C545.802 49.7745 519.375 23.0808 486.689 22.5407V2.02399C530.713 2.5641 566.365 38.4626 566.365 82.5084C566.365 126.897 530.172 163.008 485.683 163.008V163Z" fill="#F5C24D"/>
<path fill-rule="evenodd" clip-rule="evenodd" d="M485.687 1.00464V23.5296C518.343 23.5296 544.799 49.9343 544.799 82.5008C544.799 115.075 518.335 141.48 485.687 141.48C466.397 141.48 449.258 132.26 438.477 117.989L420.186 131.187C435.076 151.118 458.88 164.005 485.695 164.005C530.809 164.005 567.383 127.528 567.383 82.5008C567.383 37.5117 530.809 1.00464 485.695 1.00464L485.687 1.00464ZM487.708 3.04338C530.709 4.11599 565.363 39.345 565.363 82.5008C565.363 126.334 529.619 161.989 485.687 161.989C460.976 161.989 438.255 150.943 423.045 131.598L438.08 120.75C449.746 135.227 466.984 143.488 485.687 143.488C519.395 143.488 546.82 116.125 546.82 82.4932C546.82 49.5387 520.485 22.6092 487.708 21.5441V3.03577V3.04338Z" fill="#F5C24D"/>
<path fill-rule="evenodd" clip-rule="evenodd" d="M485.687 1.00464C440.58 1.00464 404.006 37.5117 404.006 82.5008C404.006 100.751 410.022 117.593 420.177 131.187L438.468 117.989C430.996 108.122 426.582 95.8363 426.582 82.5008C426.582 49.9343 453.046 23.5296 485.687 23.5296V1.00464ZM484.375 2.32069V22.244C451.666 22.9439 425.27 49.7061 425.27 82.5008C425.27 95.281 429.189 107.422 436.631 117.699L420.459 129.369C410.548 115.653 405.31 99.4801 405.31 82.5008C405.31 38.7213 440.657 3.02055 484.375 2.32069Z" fill="#F5C24D"/>
<path fill-rule="evenodd" clip-rule="evenodd" d="M465.171 89.0202V93.6302H469.791V89.0202H472.787V85.0569H469.791V70.4358H464.873L453.871 85.2166V89.0202H465.171ZM465.529 85.0569H458.56L465.529 75.7989V85.0569ZM477.476 90.0244V93.4324H493.655V89.6973H483.599C485.192 88.7236 486.725 87.5521 488.189 86.1904C489.653 84.8591 490.857 83.3605 491.803 81.7401C492.748 80.1502 493.206 78.5223 493.206 76.9324C493.206 74.886 492.588 73.2581 491.315 72.0257C490.041 70.8238 488.219 70.2076 485.848 70.2076C483.538 70.2076 481.616 70.8922 480.084 72.2843C478.551 73.6841 477.743 75.7609 477.606 78.4538H482.066C482.196 75.5326 483.34 74.0721 485.482 74.0721C486.527 74.0721 487.304 74.3611 487.792 74.9469C488.28 75.5326 488.509 76.3466 488.509 77.3508C488.509 80.6979 484.826 84.92 477.469 90.0168L477.476 90.0244ZM503.232 70.3369C501.699 70.3369 500.464 70.7933 499.519 71.6986C498.543 72.6419 498.055 73.9047 498.055 75.5326C498.055 77.1606 498.543 78.4234 499.519 79.3363C500.464 80.2795 501.699 80.736 503.232 80.736C504.764 80.736 505.999 80.2795 506.975 79.3363C507.921 78.4234 508.409 77.1606 508.409 75.5326C508.409 73.9047 507.921 72.6419 506.975 71.6986C505.999 70.7857 504.764 70.3369 503.232 70.3369ZM513.517 70.626L500.723 93.6226H505.153L517.947 70.626H513.517ZM501.143 75.5326C501.143 74.7871 501.341 74.2014 501.699 73.7449C502.058 73.3189 502.576 73.0983 503.194 73.0983C503.811 73.0983 504.33 73.3265 504.726 73.7449C505.115 74.2014 505.313 74.7871 505.313 75.5326C505.313 76.2781 505.115 76.8639 504.726 77.2899C504.337 77.7463 503.811 77.9746 503.194 77.9746C502.576 77.9746 502.05 77.7463 501.699 77.2899C501.341 76.8715 501.143 76.2858 501.143 75.5326ZM515.469 83.5202C513.936 83.5202 512.701 83.9767 511.756 84.8819C510.78 85.8252 510.292 87.088 510.292 88.716C510.292 90.3439 510.78 91.6067 511.756 92.5196C512.701 93.4629 513.936 93.9193 515.469 93.9193C517.001 93.9193 518.237 93.4629 519.182 92.5196C520.127 91.6067 520.615 90.3439 520.615 88.716C520.615 87.088 520.127 85.8252 519.182 84.8819C518.237 83.9691 517.001 83.5202 515.469 83.5202ZM513.387 88.716C513.387 87.9705 513.586 87.3543 513.944 86.8978C514.302 86.4718 514.821 86.2512 515.438 86.2512C516.056 86.2512 516.582 86.4794 516.971 86.9359C517.36 87.3923 517.558 87.9781 517.558 88.7236C517.558 89.4691 517.36 90.0853 516.971 90.5113C516.582 90.9677 516.056 91.1959 515.438 91.1959C514.821 91.1959 514.302 90.9677 513.944 90.5113C513.586 90.0853 513.387 89.4691 513.387 88.7236V88.716Z" fill="#F5C24D"/>
<path fill-rule="evenodd" clip-rule="evenodd" d="M16.5927 103.568C10.0234 79.0514 15.105 53.5754 30.5304 33.4896L46.454 46.4779C35.2295 61.3729 31.5604 80.1873 36.403 98.2601C44.9831 130.282 77.9601 149.364 109.902 140.806C141.52 132.333 160.465 99.8987 152.527 68.1867L172.345 62.8766C183.217 105.54 157.769 149.268 115.224 160.668C72.3484 172.157 28.0999 146.543 16.5854 103.57L16.5927 103.568Z" fill="#F5C24D"/>
<path fill-rule="evenodd" clip-rule="evenodd" d="M94.6891 1.00464V23.5296C127.345 23.5296 153.801 49.9343 153.801 82.5008C153.801 115.075 127.337 141.48 94.6891 141.48C75.3992 141.48 58.2595 132.26 47.4785 117.989L29.1875 131.187C44.078 151.118 67.8815 164.005 94.6967 164.005C139.811 164.005 176.385 127.528 176.385 82.5008C176.385 37.5117 139.811 1.00464 94.6967 1.00464L94.6891 1.00464ZM96.7095 3.04338C139.711 4.11599 174.364 39.345 174.364 82.5008C174.364 126.334 138.621 161.989 94.6891 161.989C69.9783 161.989 47.2574 150.943 32.0467 131.598L47.0821 120.75C58.7475 135.227 75.9863 143.488 94.6891 143.488C128.397 143.488 155.822 116.125 155.822 82.4932C155.822 49.5387 129.487 22.6092 96.7095 21.5441V3.03577V3.04338Z" fill="#F5C24D"/>
<path fill-rule="evenodd" clip-rule="evenodd" d="M94.6865 1.00464C49.5803 1.00464 13.0059 37.5117 13.0059 82.5008C13.0059 100.751 19.0215 117.593 29.1773 131.187L47.4683 117.989C39.9964 108.122 35.5818 95.8363 35.5818 82.5008C35.5818 49.9343 62.0463 23.5296 94.6865 23.5296V1.00464ZM93.3751 2.32069V22.244C60.6662 22.9439 34.2704 49.7061 34.2704 82.5008C34.2704 95.281 38.1894 107.422 45.6309 117.699L29.4594 129.369C19.5476 115.653 14.3096 99.4801 14.3096 82.5008C14.3096 38.7213 49.6566 3.02055 93.3751 2.32069Z" fill="#F5C24D"/>
<path fill-rule="evenodd" clip-rule="evenodd" d="M74.1705 89.0202V93.6302H78.7909V89.0202H81.7873V85.0569H78.7909V70.4358H73.8732L62.8711 85.2166V89.0202H74.1705ZM74.5289 85.0569H67.5601L74.5289 75.7989V85.0569ZM86.4764 90.0244V93.4324H102.655V89.6973H92.5988C94.1923 88.7236 95.7248 87.5521 97.1887 86.1904C98.6526 84.8591 99.8573 83.3605 100.803 81.7401C101.748 80.1502 102.206 78.5223 102.206 76.9324C102.206 74.886 101.588 73.2581 100.315 72.0257C99.0415 70.8238 97.2192 70.2076 94.848 70.2076C92.5378 70.2076 90.6164 70.8922 89.0839 72.2843C87.5514 73.6841 86.7432 75.7609 86.606 78.4538H91.0663C91.1959 75.5326 92.3396 74.0721 94.482 74.0721C95.5266 74.0721 96.3043 74.3611 96.7923 74.9469C97.2802 75.5326 97.509 76.3466 97.509 77.3508C97.509 80.6979 93.8263 84.92 86.4688 90.0168L86.4764 90.0244ZM112.232 70.3369C110.699 70.3369 109.464 70.7933 108.519 71.6986C107.543 72.6419 107.055 73.9047 107.055 75.5326C107.055 77.1606 107.543 78.4234 108.519 79.3363C109.464 80.2795 110.699 80.736 112.232 80.736C113.764 80.736 114.999 80.2795 115.975 79.3363C116.921 78.4234 117.409 77.1606 117.409 75.5326C117.409 73.9047 116.921 72.6419 115.975 71.6986C114.999 70.7857 113.764 70.3369 112.232 70.3369ZM122.517 70.626L109.723 93.6226H114.153L126.947 70.626H122.517ZM110.143 75.5326C110.143 74.7871 110.341 74.2014 110.699 73.7449C111.058 73.3189 111.576 73.0983 112.194 73.0983C112.811 73.0983 113.33 73.3265 113.726 73.7449C114.115 74.2014 114.313 74.7871 114.313 75.5326C114.313 76.2781 114.115 76.8639 113.726 77.2899C113.337 77.7463 112.811 77.9746 112.194 77.9746C111.576 77.9746 111.05 77.7463 110.699 77.2899C110.341 76.8715 110.143 76.2858 110.143 75.5326ZM124.469 83.5202C122.936 83.5202 121.701 83.9767 120.756 84.8819C119.78 85.8252 119.292 87.088 119.292 88.716C119.292 90.3439 119.78 91.6067 120.756 92.5196C121.701 93.4629 122.936 93.9193 124.469 93.9193C126.001 93.9193 127.237 93.4629 128.182 92.5196C129.127 91.6067 129.615 90.3439 129.615 88.716C129.615 87.088 129.127 85.8252 128.182 84.8819C127.237 83.9691 126.001 83.5202 124.469 83.5202ZM122.387 88.716C122.387 87.9705 122.586 87.3543 122.944 86.8978C123.302 86.4718 123.821 86.2512 124.438 86.2512C125.056 86.2512 125.582 86.4794 125.971 86.9359C126.36 87.3923 126.558 87.9781 126.558 88.7236C126.558 89.4691 126.36 90.0853 125.971 90.5113C125.582 90.9677 125.056 91.1959 124.438 91.1959C123.821 91.1959 123.302 90.9677 122.944 90.5113C122.586 90.0853 122.387 89.4691 122.387 88.7236V88.716Z" fill="#F5C24D"/>
<path fill-rule="evenodd" clip-rule="evenodd" d="M683.261 162.979C657.39 162.979 633.658 151.094 618.165 130.363C607.657 116.289 602.096 99.5527 602.096 81.9818C602.096 60.439 610.456 40.2203 625.666 24.9529L640.684 39.1259C629.133 50.5439 622.782 65.7271 622.782 81.9818C622.782 95.2288 626.985 107.795 634.939 118.302C646.475 133.569 664.086 142.332 683.254 142.332C716.603 142.332 743.733 115.264 743.733 81.9818C743.733 49.0516 717.148 22.2055 684.266 21.6545V1.02246C728.553 1.56581 764.411 37.6719 764.411 81.9818C764.411 126.644 728.001 162.972 683.246 162.972L683.261 162.979Z" fill="#F5C24D"/>
<path fill-rule="evenodd" clip-rule="evenodd" d="M683.262 0.012085V22.6721C716.106 22.6721 742.729 49.2351 742.729 81.9892C742.729 114.774 716.106 141.322 683.262 141.322C663.857 141.322 646.606 132.054 635.761 117.697C628.244 107.764 623.811 95.4123 623.811 81.9892C623.811 65.153 630.852 49.9315 642.158 39.1257L625.652 23.5522C610.488 38.4293 601.084 59.1149 601.084 81.9969C601.084 100.364 607.143 117.307 617.352 130.983C632.34 151.025 656.278 164.005 683.262 164.005C728.654 164.005 765.44 127.302 765.44 81.9969C765.44 36.738 728.654 0.0197378 683.262 0.0197378V0.012085ZM685.295 2.06304C728.554 3.14209 763.407 38.5824 763.407 81.9892C763.407 126.092 727.45 161.969 683.262 161.969C657.713 161.969 634.28 150.23 618.978 129.766C608.601 115.868 603.117 99.3458 603.117 81.9892C603.117 61.0434 611.117 41.3756 625.698 26.3761L639.235 39.1563C627.96 50.6815 621.778 65.8035 621.778 81.9892C621.778 95.4582 626.05 108.231 634.135 118.922C645.87 134.449 663.772 143.35 683.262 143.35C717.172 143.35 744.761 115.822 744.761 81.9892C744.761 48.8372 718.269 21.7461 685.295 20.6824V2.0707V2.06304Z" fill="#F5C24D"/>
<path fill-rule="evenodd" clip-rule="evenodd" d="M683.261 0.0122915C660.833 0.0122915 640.477 8.99672 625.65 23.5447L642.157 39.1183C652.826 28.9323 667.307 22.6647 683.261 22.6647V0.00463867V0.0122915ZM681.942 1.33623V21.3713C667.108 21.6851 653.079 27.3099 642.157 37.3198L627.553 23.5371C642.325 9.5018 661.547 1.65765 681.942 1.33623Z" fill="#F5C24D"/>
<path fill-rule="evenodd" clip-rule="evenodd" d="M666.518 69.6683H651.354V83.298H655.841C656.133 82.6782 656.562 82.1501 657.183 81.7598C657.805 81.4001 658.526 81.2012 659.408 81.2012C660.62 81.2012 661.54 81.5302 662.192 82.2113C662.844 82.9001 663.174 83.849 663.174 85.0582C663.174 86.3362 662.882 87.377 662.253 88.127C661.632 88.9152 660.681 89.3055 659.4 89.3055C658.349 89.3055 657.498 89.0147 656.877 88.4254C656.255 87.8668 655.826 87.0862 655.665 86.1066H651.178C651.247 87.5454 651.638 88.7851 652.328 89.8642C653.019 90.9432 654 91.7927 655.243 92.3819C656.485 93.0018 657.958 93.3003 659.63 93.3003C662.215 93.3003 664.186 92.5503 665.59 91.081C666.963 89.6116 667.653 87.6142 667.653 85.1653C667.653 83.7572 667.392 82.4868 666.902 81.3389C666.38 80.1986 665.59 79.2803 664.547 78.5915C663.465 77.9028 662.154 77.5814 660.551 77.5814C659.469 77.5814 658.518 77.7421 657.636 78.1018C656.754 78.4614 656.033 78.9512 655.542 79.5405V73.7243H666.51V69.676L666.518 69.6683ZM673.168 81.4614C673.168 73.6478 676.113 69.7602 682.012 69.7602C685.126 69.7602 687.381 70.8086 688.761 72.8978C690.134 74.9871 690.825 77.8339 690.825 81.4614C690.825 85.0888 690.134 87.9663 688.761 90.0555C687.389 92.1447 685.126 93.1931 682.012 93.1931C676.113 93.1931 673.168 89.2749 673.168 81.4614ZM686.269 81.4614C686.269 79.1119 685.977 77.2753 685.417 76.0049C684.827 74.7269 683.684 74.107 682.012 74.107C680.309 74.107 679.158 74.7269 678.606 76.0049C678.016 77.2829 677.724 79.1119 677.724 81.4614C677.724 83.849 678.016 85.6474 678.606 86.9178C679.166 88.1958 680.309 88.8463 682.012 88.8463C683.684 88.8463 684.827 88.1958 685.417 86.9178C685.977 85.6398 686.269 83.849 686.269 81.4614ZM700.911 69.7602C699.369 69.7602 698.127 70.2193 697.176 71.13C696.194 72.079 695.703 73.3494 695.703 74.9871C695.703 76.6248 696.194 77.8951 697.176 78.8135C698.127 79.7624 699.369 80.2216 700.911 80.2216C702.453 80.2216 703.695 79.7624 704.677 78.8135C705.628 77.8951 706.119 76.6248 706.119 74.9871C706.119 73.3494 705.628 72.079 704.677 71.13C703.695 70.2117 702.453 69.7602 700.911 69.7602ZM711.258 70.051L698.388 93.1855H702.844L715.714 70.051H711.258ZM698.809 74.9871C698.809 74.2371 699.009 73.6478 699.369 73.1886C699.73 72.7601 700.251 72.5381 700.873 72.5381C701.494 72.5381 702.015 72.7677 702.414 73.1886C702.806 73.6478 703.005 74.2371 703.005 74.9871C703.005 75.737 702.806 76.3263 702.414 76.7549C702.023 77.214 701.494 77.4436 700.873 77.4436C700.251 77.4436 699.722 77.214 699.369 76.7549C699.009 76.334 698.809 75.7447 698.809 74.9871ZM713.222 83.0225C711.68 83.0225 710.437 83.4817 709.486 84.3924C708.504 85.3413 708.014 86.6117 708.014 88.2494C708.014 89.8871 708.504 91.1575 709.486 92.0758C710.437 93.0248 711.68 93.4839 713.222 93.4839C714.763 93.4839 716.006 93.0248 716.957 92.0758C717.908 91.1575 718.399 89.8871 718.399 88.2494C718.399 86.6117 717.908 85.3413 716.957 84.3924C716.006 83.474 714.763 83.0225 713.222 83.0225ZM711.128 88.2494C711.128 87.4994 711.327 86.8796 711.688 86.4204C712.048 85.9918 712.57 85.7699 713.191 85.7699C713.812 85.7699 714.341 85.9995 714.733 86.4586C715.124 86.9178 715.323 87.5071 715.323 88.2571C715.323 89.007 715.124 89.6269 714.733 90.0555C714.341 90.5147 713.812 90.7442 713.191 90.7442C712.57 90.7442 712.048 90.5147 711.688 90.0555C711.327 89.6269 711.128 89.007 711.128 88.2571V88.2494Z" fill="#F5C24D"/>
<path fill-rule="evenodd" clip-rule="evenodd" d="M650.774 38.6744L650.758 38.6591L649.83 39.5851L649.845 39.6004L650.774 38.6744Z" fill="#F5C24D"/>
<path fill-rule="evenodd" clip-rule="evenodd" d="M317.812 134.85C337.964 124.511 350.43 104.176 350.43 81.4986C350.43 48.7637 324.003 22.0692 291.316 21.5291V1.01184C335.349 1.55197 370.994 37.4515 370.994 81.4986C370.994 110.65 355.219 137.474 329.768 151.73L317.82 134.85H317.812Z" fill="#F5C24D"/>
<path fill-rule="evenodd" clip-rule="evenodd" d="M290.309 0V22.5256C322.965 22.5256 349.423 48.9311 349.423 81.4985C349.423 104.762 335.927 124.876 316.316 134.477L329.469 153.046C354.813 139.216 372.007 112.362 372.007 81.4985C372.007 36.4929 335.431 0 290.316 0L290.309 0ZM292.329 2.03879C335.332 3.11144 369.986 38.3415 369.986 81.4985C369.986 109.981 354.737 136.219 330.064 150.407L319.305 135.207C339.19 124.534 351.443 104.169 351.443 81.4985C351.443 48.5431 325.108 21.6127 292.329 20.5477V2.03879Z" fill="#F5C24D"/>
<path fill-rule="evenodd" clip-rule="evenodd" d="M290.308 0C245.2 0 208.625 36.4929 208.625 81.4985C208.625 126.512 245.2 163.005 290.308 163.005C304.49 163.005 317.833 159.399 329.461 153.046L316.308 134.477C308.462 138.318 299.641 140.479 290.3 140.479C257.659 140.479 231.202 114.074 231.202 81.4985C231.202 48.9311 257.659 22.5256 290.3 22.5256V0L290.308 0ZM288.997 1.31609V21.24C256.287 21.9399 229.898 48.7028 229.898 81.4985C229.898 114.735 256.996 141.787 290.308 141.787C299.267 141.787 307.86 139.886 315.881 136.135L327.539 152.598C316.125 158.562 303.285 161.704 290.308 161.704C245.993 161.704 209.936 125.728 209.936 81.4985C209.936 37.7177 245.284 2.01597 288.997 1.31609Z" fill="#F5C24D"/>
<path fill-rule="evenodd" clip-rule="evenodd" d="M259.785 89.0298V92.438H275.964V88.7027H265.908C267.501 87.729 269.034 86.5574 270.498 85.1957C271.962 83.8644 273.166 82.3657 274.112 80.7453C275.057 79.1554 275.515 77.5274 275.515 75.9374C275.515 73.891 274.897 72.263 273.624 71.0306C272.35 69.8287 270.528 69.2125 268.157 69.2125C265.847 69.2125 263.925 69.8971 262.393 71.2893C260.86 72.6891 260.052 74.7659 259.915 77.4589H264.375C264.505 74.5377 265.648 73.077 267.791 73.077C268.835 73.077 269.613 73.3661 270.101 73.9519C270.589 74.5377 270.818 75.3517 270.818 76.3558C270.818 79.7031 267.135 83.9252 259.777 89.0222L259.785 89.0298ZM297.42 69.2429H282.346V82.7917H286.807C287.097 82.1755 287.523 81.6506 288.141 81.2626C288.759 80.9051 289.475 80.7073 290.352 80.7073C291.557 80.7073 292.472 81.0344 293.12 81.7115C293.768 82.3962 294.096 83.3395 294.096 84.5415C294.096 85.8119 293.806 86.8465 293.181 87.592C292.563 88.3756 291.618 88.7636 290.345 88.7636C289.3 88.7636 288.454 88.4745 287.836 87.8887C287.218 87.3334 286.792 86.5574 286.631 85.5837H282.171C282.24 87.0139 282.628 88.2463 283.315 89.3189C284.001 90.3916 284.977 91.236 286.212 91.8218C287.447 92.438 288.911 92.7347 290.573 92.7347C293.143 92.7347 295.102 91.9891 296.498 90.5285C297.863 89.0679 298.549 87.0823 298.549 84.648C298.549 83.2482 298.289 81.9854 297.802 80.8442C297.283 79.7107 296.498 78.7978 295.461 78.1132C294.386 77.4285 293.082 77.109 291.488 77.109C290.413 77.109 289.468 77.2687 288.591 77.6263C287.714 77.9838 286.997 78.4707 286.509 79.0565V73.2748H297.413V69.2505L297.42 69.2429ZM308.59 69.3418C307.058 69.3418 305.823 69.7982 304.877 70.7035C303.901 71.6468 303.413 72.9097 303.413 74.5377C303.413 76.1657 303.901 77.4285 304.877 78.3414C305.823 79.2847 307.058 79.7412 308.59 79.7412C310.123 79.7412 311.358 79.2847 312.334 78.3414C313.28 77.4285 313.768 76.1657 313.768 74.5377C313.768 72.9097 313.28 71.6468 312.334 70.7035C311.358 69.7906 310.123 69.3418 308.59 69.3418ZM318.876 69.6309L306.082 92.6282H310.512L323.306 69.6309H318.876ZM306.501 74.5377C306.501 73.7921 306.7 73.2064 307.058 72.7499C307.416 72.3239 307.935 72.1033 308.552 72.1033C309.17 72.1033 309.688 72.3315 310.085 72.7499C310.474 73.2064 310.672 73.7921 310.672 74.5377C310.672 75.2832 310.474 75.869 310.085 76.295C309.696 76.7514 309.17 76.9797 308.552 76.9797C307.935 76.9797 307.409 76.7514 307.058 76.295C306.7 75.8766 306.501 75.2908 306.501 74.5377ZM320.828 82.5255C319.295 82.5255 318.06 82.9819 317.115 83.8872C316.139 84.8305 315.651 86.0934 315.651 87.7214C315.651 89.3494 316.139 90.6122 317.115 91.5251C318.06 92.4684 319.295 92.9249 320.828 92.9249C322.361 92.9249 323.596 92.4684 324.541 91.5251C325.487 90.6122 325.975 89.3494 325.975 87.7214C325.975 86.0934 325.487 84.8305 324.541 83.8872C323.596 82.9743 322.361 82.5255 320.828 82.5255ZM318.746 87.7214C318.746 86.9758 318.945 86.3596 319.303 85.9032C319.661 85.4772 320.18 85.2566 320.797 85.2566C321.415 85.2566 321.941 85.4848 322.33 85.9412C322.719 86.3977 322.917 86.9834 322.917 87.729C322.917 88.4745 322.719 89.0907 322.33 89.5167C321.941 89.9732 321.415 90.2014 320.797 90.2014C320.18 90.2014 319.661 89.9732 319.303 89.5167C318.945 89.0907 318.746 88.4745 318.746 87.729V87.7214Z" fill="#F5C24D"/>
<path fill-rule="evenodd" clip-rule="evenodd" d="M935.428 98.703C937.08 93.15 937.921 87.3612 937.921 81.4887C937.921 48.7564 911.658 22.0715 879.174 21.5238V1.01569C922.925 1.55577 958.349 37.445 958.349 81.4887C958.349 90.8299 956.781 99.9582 953.682 108.622L935.428 98.7106V98.703Z" fill="#F5C24D"/>
<path fill-rule="evenodd" clip-rule="evenodd" d="M878.172 0.00463867V22.5285C910.618 22.5285 936.919 48.9318 936.919 81.4891C936.919 87.6734 935.979 93.6219 934.229 99.1978L954.225 110.06C957.544 101.176 959.355 91.5529 959.355 81.4891C959.355 36.5022 923.014 0.00463867 878.172 0.00463867ZM880.18 2.04327C922.916 3.11583 957.347 38.3431 957.347 81.4891C957.347 90.3206 955.93 98.9467 953.119 107.177L936.616 98.2089C938.146 92.808 938.919 87.1866 938.919 81.4891C938.919 48.5362 912.747 21.608 880.172 20.5507V2.05088L880.18 2.04327Z" fill="#F5C24D"/>
<path fill-rule="evenodd" clip-rule="evenodd" d="M878.174 0.00463867C833.347 0.00463867 797.006 36.5024 797.006 81.4894C797.006 99.7459 802.977 116.588 813.07 130.181C827.876 150.103 851.532 163.005 878.174 163.005C907.87 163.005 933.829 147.007 947.991 123.114C950.446 118.999 952.538 114.625 954.228 110.068L934.231 99.2058C933.398 101.876 932.382 104.462 931.185 106.942C921.728 126.781 901.55 140.473 878.174 140.473C859.003 140.473 841.977 131.261 831.248 116.991C823.837 107.117 819.442 94.8395 819.442 81.497C819.442 48.9396 845.743 22.5362 878.174 22.5362V0.0122455V0.00463867ZM876.871 1.32063V21.2354C844.364 21.9352 818.139 48.6962 818.139 81.4894C818.139 94.7026 822.314 107.254 830.21 117.767C841.682 133.018 859.163 141.766 878.174 141.766C901.164 141.766 922.433 128.31 932.359 107.497C933.344 105.443 934.223 103.291 934.981 101.092L952.606 110.669C951.022 114.762 949.098 118.725 946.878 122.445C932.534 146.657 906.21 161.704 878.182 161.704C852.722 161.704 829.376 149.928 814.123 129.405C803.78 115.485 798.309 98.9168 798.309 81.497C798.309 37.7271 833.438 2.02807 876.878 1.32823L876.871 1.32063Z" fill="#F5C24D"/>
<path fill-rule="evenodd" clip-rule="evenodd" d="M857.231 73.9807V92.6251H862.02V69.6904H853.799V73.9807H857.231ZM868.719 74.9239C868.719 76.1562 869.044 77.2288 869.658 78.1036C870.272 78.9784 871.181 79.663 872.378 80.0814C871.022 80.5986 869.984 81.3517 869.272 82.3254C868.529 83.3295 868.173 84.5314 868.173 85.9311C868.173 87.46 868.559 88.7608 869.302 89.8258C870.045 90.9288 871.052 91.7731 872.378 92.3284C873.674 92.8837 875.159 93.1728 876.811 93.1728C878.463 93.1728 879.948 92.8837 881.274 92.3284C882.57 91.7731 883.6 90.9288 884.351 89.8258C885.093 88.7532 885.48 87.4524 885.48 85.9311C885.48 84.5314 885.123 83.3295 884.411 82.3254C883.669 81.3517 882.631 80.6063 881.274 80.0814C882.471 79.663 883.381 78.9784 883.994 78.1036C884.608 77.2288 884.904 76.1867 884.904 74.9239C884.904 73.8209 884.616 72.7788 883.994 71.8356C883.381 70.8923 882.441 70.1164 881.244 69.5307C880.016 68.9449 878.524 68.6559 876.811 68.6559C875.099 68.6559 873.606 68.9449 872.409 69.5307C871.181 70.1164 870.272 70.8923 869.658 71.8356C869.044 72.7788 868.719 73.8133 868.719 74.9239ZM873.219 75.6694C873.219 74.6273 873.545 73.8209 874.22 73.2352C874.864 72.6799 875.743 72.3909 876.811 72.3909C877.91 72.3909 878.781 72.6799 879.463 73.2352C880.107 73.8209 880.433 74.6349 880.433 75.6694C880.433 76.7115 880.107 77.5179 879.463 78.0732C878.819 78.6285 877.94 78.9175 876.811 78.9175C875.712 78.9175 874.833 78.6285 874.189 78.0732C873.545 77.5179 873.219 76.7115 873.219 75.6694ZM872.606 85.6724C872.606 84.501 872.992 83.5958 873.803 82.9796C874.576 82.3634 875.584 82.0668 876.811 82.0668C878.077 82.0668 879.077 82.3558 879.888 82.9796C880.66 83.5958 881.054 84.5086 881.054 85.6724C881.054 86.8135 880.668 87.7187 879.925 88.4033C879.145 89.0879 878.114 89.4074 876.819 89.4074C875.523 89.4074 874.492 89.0803 873.742 88.4033C873 87.7187 872.606 86.8135 872.606 85.6724ZM895.61 69.3329C894.087 69.3329 892.86 69.7893 891.92 70.6945C890.95 71.6378 890.465 72.9005 890.465 74.5284C890.465 76.1562 890.95 77.419 891.92 78.3318C892.86 79.2751 894.087 79.7315 895.61 79.7315C897.133 79.7315 898.361 79.2751 899.331 78.3318C900.271 77.419 900.755 76.1562 900.755 74.5284C900.755 72.9005 900.271 71.6378 899.331 70.6945C898.361 69.7817 897.133 69.3329 895.61 69.3329ZM905.832 69.622L893.118 92.6175H897.52L910.235 69.622H905.832ZM893.534 74.5284C893.534 73.7829 893.731 73.1972 894.087 72.7408C894.444 72.3148 894.959 72.0942 895.573 72.0942C896.186 72.0942 896.702 72.3224 897.096 72.7408C897.482 73.1972 897.679 73.7829 897.679 74.5284C897.679 75.2739 897.482 75.8596 897.096 76.2856C896.709 76.742 896.186 76.9702 895.573 76.9702C894.959 76.9702 894.436 76.742 894.087 76.2856C893.731 75.8672 893.534 75.2815 893.534 74.5284ZM907.772 82.5156C906.249 82.5156 905.021 82.972 904.082 83.8772C903.112 84.8205 902.627 86.0832 902.627 87.7111C902.627 89.3389 903.112 90.6017 904.082 91.5145C905.021 92.4577 906.249 92.9142 907.772 92.9142C909.295 92.9142 910.523 92.4577 911.462 91.5145C912.402 90.6017 912.887 89.3389 912.887 87.7111C912.887 86.0832 912.402 84.8205 911.462 83.8772C910.523 82.9644 909.295 82.5156 907.772 82.5156ZM905.703 87.7111C905.703 86.9656 905.9 86.3494 906.257 85.893C906.613 85.467 907.128 85.2464 907.742 85.2464C908.355 85.2464 908.878 85.4746 909.265 85.9311C909.651 86.3875 909.848 86.9732 909.848 87.7187C909.848 88.4641 909.651 89.0803 909.265 89.5063C908.878 89.9627 908.355 90.1909 907.742 90.1909C907.128 90.1909 906.613 89.9627 906.257 89.5063C905.9 89.0803 905.703 88.4641 905.703 87.7187V87.7111Z" fill="#F5C24D"/>
</svg>
